<svg xmlns="http://www.w3.org/2000/svg" xmlns:xlink="http://www.w3.org/1999/xlink" width="150" zoomAndPan="magnify" viewBox="0 0 112.5 37.5" height="50" preserveAspectRatio="xMidYMid meet" version="1.0"><defs><g/><clipPath id="f1607f9f2a"><path d="M 0.492188 0 L 111.511719 0 L 111.511719 37.007812 L 0.492188 37.007812 Z M 0.492188 0 " clip-rule="nonzero"/></clipPath><clipPath id="6f16b18730"><path d="M 4.140625 3.492188 L 52.214844 3.492188 L 52.214844 33.679688 L 4.140625 33.679688 Z M 4.140625 3.492188 " clip-rule="nonzero"/></clipPath></defs><g clip-path="url(#f1607f9f2a)"><path stroke-linecap="butt" transform="matrix(0.741953, 0, 0, 0.743421, 0.493421, 0.0014499)" fill="none" stroke-linejoin="miter" d="M -0.00166258 -0.00195031 L 150.298533 -0.00195031 L 150.298533 49.9939 L -0.00166258 49.9939 L -0.00166258 -0.00195031 " stroke="#FFFFFF00" stroke-width="4" stroke-opacity="1" stroke-miterlimit="4"/></g><g clip-path="url(#6f16b18730)"><path fill="#FFFFFF00" d="M 4.140625 3.492188 L 52.289062 3.492188 L 52.289062 33.988281 L 4.140625 33.988281 Z M 4.140625 3.492188 " fill-opacity="1" fill-rule="nonzero"/></g><g fill="#36B0CA" fill-opacity="1"><g transform="translate(8.241821, 23.807573)"><g><path d="M 6.796875 0.214844 C 9.605469 0.214844 11.882812 -1.484375 12.574219 -4.058594 L 11.039062 -4.058594 C 10.445312 -2.328125 8.8125 -1.238281 6.847656 -1.238281 C 4.273438 -1.238281 2.441406 -3.101562 2.441406 -5.777344 C 2.441406 -8.449219 4.273438 -10.3125 6.847656 -10.3125 C 8.761719 -10.3125 10.328125 -9.289062 10.925781 -7.625 L 12.476562 -7.625 C 11.714844 -10.164062 9.519531 -11.765625 6.796875 -11.765625 C 3.398438 -11.765625 0.957031 -9.257812 0.957031 -5.777344 C 0.957031 -2.292969 3.398438 0.214844 6.796875 0.214844 Z M 6.796875 0.214844 "/></g></g></g><g fill="#6EC91C" fill-opacity="1"><g transform="translate(22.960292, 23.807573)"><g><path d="M 6.007812 0.199219 C 8.796875 0.199219 10.480469 -1.632812 10.480469 -4.703125 L 10.480469 -11.550781 L 9.027344 -11.550781 L 9.027344 -4.800781 C 9.027344 -2.441406 7.988281 -1.222656 6.007812 -1.222656 C 4.042969 -1.222656 2.988281 -2.441406 2.988281 -4.800781 L 2.988281 -11.550781 L 1.550781 -11.550781 L 1.550781 -4.703125 C 1.550781 -1.632812 3.21875 0.199219 6.007812 0.199219 Z M 6.007812 0.199219 "/></g></g></g><g fill="#FFC523" fill-opacity="1"><g transform="translate(35.857584, 24.161184)"><g><path d="M 1.300781 0 L 4.816406 0 L 4.816406 -6.238281 L 7.1875 -2.917969 L 9.488281 -2.917969 L 11.84375 -6.222656 L 11.84375 0 L 15.359375 0 L 15.359375 -12.300781 L 12.476562 -12.300781 L 8.332031 -6.449219 L 4.199219 -12.300781 L 1.300781 -12.300781 Z M 1.300781 0 "/></g></g></g><g fill="#7CAA24" fill-opacity="1"><g transform="translate(52.503245, 24.161184)"><g><path d="M 0.0859375 0 L 3.847656 0 L 4.515625 -1.738281 L 8.71875 -1.738281 L 9.386719 0 L 13.164062 0 L 8.382812 -12.300781 L 4.867188 -12.300781 Z M 5.253906 -4.339844 L 6.625 -8.15625 L 7.996094 -4.339844 Z M 5.253906 -4.339844 "/></g></g></g><g fill="#007D80" fill-opacity="1"><g transform="translate(65.745931, 24.161184)"><g><path d="M 1.300781 0 L 4.851562 0 L 4.851562 -3.039062 L 6.484375 -3.039062 C 9.613281 -3.039062 11.597656 -4.851562 11.597656 -7.679688 C 11.597656 -10.507812 9.613281 -12.300781 6.484375 -12.300781 L 1.300781 -12.300781 Z M 4.816406 -6.011719 L 4.816406 -9.316406 L 6.152344 -9.316406 C 7.328125 -9.316406 8.015625 -8.683594 8.015625 -7.664062 C 8.015625 -6.625 7.328125 -6.011719 6.152344 -6.011719 Z M 4.816406 -6.011719 "/></g></g></g><g fill="#007D80" fill-opacity="1"><g transform="translate(77.741625, 24.161184)"><g><path d="M 5.710938 0.261719 C 8.769531 0.261719 10.578125 -1.175781 10.578125 -3.601562 C 10.578125 -5.640625 9.261719 -6.835938 6.273438 -7.503906 C 4.691406 -7.855469 4.113281 -8.242188 4.113281 -8.875 C 4.113281 -9.472656 4.640625 -9.839844 5.464844 -9.839844 C 6.449219 -9.839844 7.011719 -9.332031 7.011719 -8.402344 L 10.351562 -8.402344 C 10.351562 -10.929688 8.417969 -12.566406 5.394531 -12.566406 C 2.496094 -12.566406 0.703125 -11.125 0.703125 -8.804688 C 0.703125 -6.730469 2.054688 -5.449219 4.832031 -4.921875 C 6.328125 -4.621094 7.046875 -4.164062 7.046875 -3.460938 C 7.046875 -2.847656 6.519531 -2.496094 5.660156 -2.496094 C 4.640625 -2.496094 4.042969 -3.039062 4.042969 -3.988281 L 0.613281 -3.988281 C 0.613281 -1.335938 2.511719 0.261719 5.710938 0.261719 Z M 5.710938 0.261719 "/></g></g></g><g fill="#007D80" fill-opacity="1"><g transform="translate(88.714826, 24.359438)"><g><path d="M 1.046875 0.03125 C 0.898438 0.03125 0.78125 -0.00390625 0.6875 -0.078125 C 0.601562 -0.160156 0.5625 -0.273438 0.5625 -0.421875 C 0.5625 -0.546875 0.601562 -0.648438 0.6875 -0.734375 C 0.78125 -0.828125 0.898438 -0.875 1.046875 -0.875 C 1.191406 -0.875 1.304688 -0.832031 1.390625 -0.75 C 1.472656 -0.664062 1.515625 -0.554688 1.515625 -0.421875 C 1.515625 -0.285156 1.472656 -0.175781 1.390625 -0.09375 C 1.304688 -0.0078125 1.191406 0.03125 1.046875 0.03125 Z M 1.046875 0.03125 "/></g></g></g><g fill="#007D80" fill-opacity="1"><g transform="translate(90.800537, 24.359438)"><g><path d="M 0.609375 0 L 0.609375 -4.28125 L 1.640625 -4.28125 L 1.640625 -3.640625 L 1.734375 -3.625 C 1.992188 -4.113281 2.421875 -4.359375 3.015625 -4.359375 C 3.515625 -4.359375 3.878906 -4.222656 4.109375 -3.953125 C 4.335938 -3.679688 4.453125 -3.289062 4.453125 -2.78125 L 4.453125 0 L 3.390625 0 L 3.390625 -2.640625 C 3.390625 -2.929688 3.332031 -3.140625 3.21875 -3.265625 C 3.101562 -3.390625 2.921875 -3.453125 2.671875 -3.453125 C 2.359375 -3.453125 2.113281 -3.351562 1.9375 -3.15625 C 1.769531 -2.957031 1.6875 -2.644531 1.6875 -2.21875 L 1.6875 0 Z M 0.609375 0 "/></g></g><g transform="translate(95.803146, 24.359438)"><g><path d="M 4.21875 -1.890625 L 1.484375 -1.890625 C 1.503906 -1.523438 1.601562 -1.253906 1.78125 -1.078125 C 1.96875 -0.910156 2.21875 -0.828125 2.53125 -0.828125 C 2.78125 -0.828125 2.976562 -0.875 3.125 -0.96875 C 3.28125 -1.0625 3.40625 -1.203125 3.5 -1.390625 L 3.578125 -1.390625 L 4.296875 -0.921875 C 4.148438 -0.628906 3.9375 -0.390625 3.65625 -0.203125 C 3.375 -0.015625 3 0.078125 2.53125 0.078125 C 2.09375 0.078125 1.710938 -0.00390625 1.390625 -0.171875 C 1.066406 -0.335938 0.816406 -0.585938 0.640625 -0.921875 C 0.472656 -1.253906 0.390625 -1.660156 0.390625 -2.140625 C 0.390625 -2.617188 0.476562 -3.023438 0.65625 -3.359375 C 0.84375 -3.691406 1.09375 -3.941406 1.40625 -4.109375 C 1.71875 -4.273438 2.066406 -4.359375 2.453125 -4.359375 C 3.054688 -4.359375 3.519531 -4.195312 3.84375 -3.875 C 4.164062 -3.550781 4.328125 -3.082031 4.328125 -2.46875 C 4.328125 -2.238281 4.320312 -2.0625 4.3125 -1.9375 Z M 3.296875 -2.59375 C 3.285156 -2.914062 3.207031 -3.148438 3.0625 -3.296875 C 2.925781 -3.441406 2.722656 -3.515625 2.453125 -3.515625 C 1.910156 -3.515625 1.59375 -3.207031 1.5 -2.59375 Z M 3.296875 -2.59375 "/></g></g><g transform="translate(100.44566, 24.359438)"><g><path d="M 2.953125 -1.015625 L 3.234375 -0.21875 C 3.109375 -0.125 2.957031 -0.0507812 2.78125 0 C 2.613281 0.0507812 2.414062 0.078125 2.1875 0.078125 C 1.726562 0.078125 1.378906 -0.046875 1.140625 -0.296875 C 0.898438 -0.546875 0.78125 -0.910156 0.78125 -1.390625 L 0.78125 -3.421875 L 0.125 -3.421875 L 0.125 -4.28125 L 0.78125 -4.28125 L 0.78125 -5.109375 L 1.859375 -5.28125 L 1.859375 -4.28125 L 3.0625 -4.28125 L 3.0625 -3.421875 L 1.859375 -3.421875 L 1.859375 -1.46875 C 1.859375 -1.257812 1.898438 -1.101562 1.984375 -1 C 2.066406 -0.90625 2.195312 -0.859375 2.375 -0.859375 C 2.5625 -0.859375 2.726562 -0.910156 2.875 -1.015625 Z M 2.953125 -1.015625 "/></g></g></g><div xmlns="" id="divScriptsUsed" style="display: none"/><script xmlns="" id="globalVarsDetection" src="chrome-extension://cmkdbmfndkfgebldhnkbfhlneefdaaip/js/wrs_env.js"/></svg>